<?xml version="1.0" encoding="iso-8859-1"?>
<!-- Generator: Adobe Illustrator 25.2.3, SVG Export Plug-In . SVG Version: 6.00 Build 0)  -->
<svg version="1.1" baseProfile="basic" id="Layer_1"
	 xmlns="http://www.w3.org/2000/svg" xmlns:xlink="http://www.w3.org/1999/xlink" x="0px" y="0px" viewBox="0 0 48 48"
	 xml:space="preserve">
<rect x="-459" y="-339" style="display:none;fill:#AFFF92;" width="4453" height="2063"/>
<linearGradient id="SVGID_1_" gradientUnits="userSpaceOnUse" x1="-5.5035" y1="52.9646" x2="63.8382" y2="-15.1106">
	<stop  offset="0" style="stop-color:#262626;stop-opacity:0"/>
	<stop  offset="1" style="stop-color:#262626;stop-opacity:0.8"/>
</linearGradient>
<path style="fill:url(#SVGID_1_);" d="M41.426,19.561c-0.43-1.691-1.094-3.284-1.965-4.746l1.67-4.268
	c0.332-0.848,0.13-1.813-0.514-2.457l-1.768-1.768l-5.666,2.217c-1.462-0.87-3.054-1.535-4.745-1.965l-1.838-4.2
	C26.236,1.539,25.411,1,24.5,1H22l-2.439,5.574c-1.691,0.43-3.284,1.094-4.746,1.965l-4.268-1.67
	C9.699,6.537,8.734,6.739,8.09,7.383L6.322,9.151l2.217,5.666c-0.87,1.462-1.535,3.054-1.965,4.745l-4.2,1.838
	C1.539,21.764,1,22.589,1,23.5V26l5.574,2.439c0.43,1.691,1.094,3.284,1.965,4.746l-1.67,4.268c-0.332,0.849-0.13,1.813,0.514,2.458
	l1.768,1.768l5.666-2.217c1.462,0.87,3.054,1.535,4.745,1.965l1.838,4.2C21.764,46.461,22.589,47,23.5,47H26l2.439-5.574
	c1.691-0.43,3.284-1.094,4.746-1.965l4.268,1.67c0.849,0.332,1.813,0.13,2.458-0.514l1.768-1.768l-2.217-5.666
	c0.87-1.462,1.535-3.054,1.965-4.745l4.2-1.838C46.461,26.236,47,25.411,47,24.5V22L41.426,19.561z"/>
<linearGradient id="SVGID_2_" gradientUnits="userSpaceOnUse" x1="10.4988" y1="10.4988" x2="37.2191" y2="37.2191">
	<stop  offset="0" style="stop-color:#262626;stop-opacity:0"/>
	<stop  offset="1" style="stop-color:#262626;stop-opacity:0.8"/>
</linearGradient>
<path style="fill:url(#SVGID_2_);" d="M34,24c0,5.522-4.478,10-10,10s-10-4.478-10-10s4.477-10,10-10S34,18.478,34,24z"/>
</svg>